<svg xmlns="http://www.w3.org/2000/svg" xmlns:xlink="http://www.w3.org/1999/xlink" xmlns:lucid="lucid" width="1804" height="1008"><g transform="translate(1304 -505)" lucid:page-tab-id="0_0"><path d="M-1500-1000H500v2500h-2000z" fill="#fff"/><path d="M-501.25 768.68a12.8 12.8 0 0 1 4.6-9.84l41.2-34.32a16.57 16.57 0 0 1 10.6-3.84h417.6a6 6 0 0 1 6 6v357.6a16.57 16.57 0 0 1-3.84 10.6l-34.3 41.2a12.8 12.8 0 0 1-9.85 4.6h-426a6 6 0 0 1-6-6z" stroke="#3a414a" stroke-width="2" fill="#fff"/><path d="M-495.25 762.68a2.17 2.17 0 0 1-1.4-3.84l41.2-34.32a16.57 16.57 0 0 1 10.6-3.84h417.6a2.48 2.48 0 0 1 1.76 4.25l-33.5 33.5a14.48 14.48 0 0 1-10.25 4.25z" stroke="#3a414a" stroke-width="2" fill="#e6e6e6"/><path d="M-63.25 768.68A14.48 14.48 0 0 1-59 758.44l33.5-33.52a2.48 2.48 0 0 1 4.25 1.76v357.6a16.57 16.57 0 0 1-3.84 10.6l-34.3 41.2a2.17 2.17 0 0 1-3.85-1.4z" stroke="#3a414a" stroke-width="2" fill="#ccc"/><use xlink:href="#a" transform="matrix(1,0,0,1,-493.2500000000001,770.6825865624266) translate(79.91358024691358 17.77777777777778)"/><use xlink:href="#b" transform="matrix(1,0,0,1,-493.2500000000001,770.6825865624266) translate(194.48148148148147 17.77777777777778)"/><path d="M398.75 974.68c0 6.08-22.4 11-50 11s-50-4.92-50-11v-88c0-6.07 22.4-11 50-11s50 4.93 50 11z" stroke="#3a414a" stroke-width="2" fill="#fff"/><path d="M398.75 886.68c0 6.08-22.4 11-50 11s-50-4.92-50-11" stroke="#3a414a" stroke-width="2" fill="none"/><use xlink:href="#c" transform="matrix(1,0,0,1,303.75,902.6825865624352) translate(29.598765432098766 44.59027777777778)"/><path d="M247.75 930.68h-11M202.75 930.68h-5" stroke="#3a414a" stroke-width="2" fill="none"/><path d="M222.75 944.68c-7.73 0-14-6.27-14-14s6.27-14 14-14 14 6.27 14 14-6.27 14-14 14z" stroke="#3a414a" stroke-width="2" fill="#fff"/><path d="M222.75 910.68c-11.05 0-20 8.96-20 20 0 11.05 8.95 20 20 20" stroke="#3a414a" stroke-width="2" fill="none"/><path d="M247.75 930.68a.8.8 0 0 1-.8.8h-9.4a.8.8 0 0 1-.8-.8.8.8 0 0 1 .8-.8h9.4a.8.8 0 0 1 .8.8z" fill="none"/><path d="M60.16 931.66h-79.4v-1.95h79.4zm136.6 0h-79.42v-1.95h79.4z" stroke="#5e5e5e" stroke-width=".05" fill="#5e5e5e"/><path d="M-19.22 931.66h-1.03v-1.95h1.03z" fill="#5e5e5e"/><path stroke="#5e5e5e" stroke-width=".05" fill="#5e5e5e"/><path d="M197.75 931.66h-1.03v-1.95h1.03z" fill="#5e5e5e"/><path stroke="#5e5e5e" stroke-width=".05" fill="#5e5e5e"/><use xlink:href="#d" transform="matrix(1,0,0,1,60.15740740740735,920.0159198957685) translate(0.004999999999999005 14.222222222222223)"/><path d="M296.75 930.68h-48" stroke="#5e5e5e" stroke-width="2" fill="none"/><path d="M297.75 931.66h-1.03v-1.95h1.03zM248.78 931.66h-1.03v-1.95h1.03z" stroke="#5e5e5e" stroke-width=".05" fill="#5e5e5e"/><path d="M-331.25 846.68a6 6 0 0 1 6-6h148a6 6 0 0 1 6 6v48a6 6 0 0 1-6 6h-148a6 6 0 0 1-6-6z" stroke="#3a414a" stroke-width="2" fill="#fff"/><path d="M-351.25 851.68a6 6 0 0 1 6-6h28a6 6 0 0 1 6 6v8a6 6 0 0 1-6 6h-28a6 6 0 0 1-6-6zM-351.25 881.68a6 6 0 0 1 6-6h28a6 6 0 0 1 6 6v8a6 6 0 0 1-6 6h-28a6 6 0 0 1-6-6z" stroke="#3a414a" stroke-width="2" fill="#fff"/><use xlink:href="#e" transform="matrix(1,0,0,1,-315.2500000000001,846.6825865624266) translate(8.802469135802468 17.77777777777778)"/><use xlink:href="#f" transform="matrix(1,0,0,1,-315.2500000000001,846.6825865624266) translate(21.02469135802469 44.44444444444444)"/><path d="M-331.25 981.68a6 6 0 0 1 6-6h148a6 6 0 0 1 6 6v48a6 6 0 0 1-6 6h-148a6 6 0 0 1-6-6z" stroke="#3a414a" stroke-width="2" fill="#fff"/><path d="M-351.25 986.68a6 6 0 0 1 6-6h28a6 6 0 0 1 6 6v8a6 6 0 0 1-6 6h-28a6 6 0 0 1-6-6zM-351.25 1016.68a6 6 0 0 1 6-6h28a6 6 0 0 1 6 6v8a6 6 0 0 1-6 6h-28a6 6 0 0 1-6-6z" stroke="#3a414a" stroke-width="2" fill="#fff"/><use xlink:href="#g" transform="matrix(1,0,0,1,-315.2500000000001,981.6825865624352) translate(8.802469135802468 17.77777777777778)"/><use xlink:href="#h" transform="matrix(1,0,0,1,-315.2500000000001,981.6825865624352) translate(22.29012345679012 44.44444444444444)"/><path d="M-261.25 902.68v71" stroke="#5e5e5e" stroke-width="2" fill="none"/><path d="M-260.27 902.7h-1.96v-1.02h1.96zM-260.27 974.68h-1.96v-1.02h1.96z" stroke="#5e5e5e" stroke-width=".05" fill="#5e5e5e"/><path d="M-1261.25 757.57a12.8 12.8 0 0 1 4.6-9.84l7.34-6.1a16.57 16.57 0 0 1 10.6-3.85h251.45a6 6 0 0 1 6 6v109.36a16.57 16.57 0 0 1-3.84 10.6l-6.1 7.34a12.8 12.8 0 0 1-9.84 4.6h-254.2a6 6 0 0 1-6-6z" stroke="#3a414a" stroke-width="2" fill="#fff"/><path d="M-1255.25 751.57a2.17 2.17 0 0 1-1.4-3.84l7.34-6.1a16.57 16.57 0 0 1 10.6-3.85h251.45a2.48 2.48 0 0 1 1.76 4.24l-5.3 5.3a14.48 14.48 0 0 1-10.24 4.25z" stroke="#3a414a" stroke-width="2" fill="#e6e6e6"/><path d="M-995.04 757.57a14.48 14.48 0 0 1 4.24-10.25l5.3-5.3a2.48 2.48 0 0 1 4.25 1.76v109.36a16.57 16.57 0 0 1-3.84 10.6l-6.1 7.34a2.17 2.17 0 0 1-3.84-1.4z" stroke="#3a414a" stroke-width="2" fill="#ccc"/><use xlink:href="#i" transform="matrix(1,0,0,1,-1253.25,759.5674152550339) translate(0 16.6)"/><use xlink:href="#j" transform="matrix(1,0,0,1,-1253.25,759.5674152550339) translate(71.85000000000001 16.6)"/><path d="M-783.3 806.73h11M-738.3 806.73h5" stroke="#3a414a" stroke-width="2" fill="none"/><path d="M-758.3 792.73c7.72 0 14 6.27 14 14s-6.28 14-14 14c-7.74 0-14-6.27-14-14s6.26-14 14-14z" stroke="#3a414a" stroke-width="2" fill="#fff"/><path d="M-758.3 826.73c11.04 0 20-8.96 20-20 0-11.05-8.96-20-20-20" stroke="#3a414a" stroke-width="2" fill="none"/><path d="M-783.3 806.73a.8.8 0 0 1 .8-.8h9.4a.8.8 0 0 1 .8.8.8.8 0 0 1-.8.8h-9.4a.8.8 0 0 1-.8-.8z" fill="none"/><path d="M-783.3 980.68h11M-738.3 980.68h5" stroke="#3a414a" stroke-width="2" fill="none"/><path d="M-758.3 966.68c7.72 0 14 6.27 14 14 0 7.74-6.28 14-14 14-7.74 0-14-6.26-14-14 0-7.73 6.26-14 14-14z" stroke="#3a414a" stroke-width="2" fill="#fff"/><path d="M-758.3 1000.68c11.04 0 20-8.95 20-20 0-11.04-8.96-20-20-20" stroke="#3a414a" stroke-width="2" fill="none"/><path d="M-783.3 980.68a.8.8 0 0 1 .8-.8h9.4a.8.8 0 0 1 .8.8.8.8 0 0 1-.8.8h-9.4a.8.8 0 0 1-.8-.8z" fill="none"/><path d="M-783.3 1160.68h11M-738.3 1160.68h5" stroke="#3a414a" stroke-width="2" fill="none"/><path d="M-758.3 1146.68c7.72 0 14 6.27 14 14s-6.28 14-14 14c-7.74 0-14-6.27-14-14s6.26-14 14-14z" stroke="#3a414a" stroke-width="2" fill="#fff"/><path d="M-758.3 1180.68c11.04 0 20-8.95 20-20 0-11.04-8.96-20-20-20" stroke="#3a414a" stroke-width="2" fill="none"/><path d="M-783.3 1160.68a.8.8 0 0 1 .8-.8h9.4a.8.8 0 0 1 .8.8.8.8 0 0 1-.8.8h-9.4a.8.8 0 0 1-.8-.8z" fill="none"/><path d="M-783.3 1347.55h11M-738.3 1347.55h5" stroke="#3a414a" stroke-width="2" fill="none"/><path d="M-758.3 1333.55c7.72 0 14 6.26 14 14 0 7.73-6.28 14-14 14-7.74 0-14-6.27-14-14 0-7.74 6.26-14 14-14z" stroke="#3a414a" stroke-width="2" fill="#fff"/><path d="M-758.3 1367.55c11.04 0 20-8.96 20-20 0-11.05-8.96-20-20-20" stroke="#3a414a" stroke-width="2" fill="none"/><path d="M-783.3 1347.55a.8.8 0 0 1 .8-.8h9.4a.8.8 0 0 1 .8.8.8.8 0 0 1-.8.8h-9.4a.8.8 0 0 1-.8-.8z" fill="none"/><path d="M-642.9 807.7h-89.4v-1.95h89.4zm139.65 0h-89.42v-1.95h89.42z" stroke="#5e5e5e" stroke-width=".05" fill="#5e5e5e"/><path d="M-502.25 807.7h-1.03v-1.95h1.03z" fill="#5e5e5e"/><path stroke="#5e5e5e" stroke-width=".05" fill="#5e5e5e"/><path d="M-732.28 807.7h-1.03v-1.95h1.02z" fill="#5e5e5e"/><path stroke="#5e5e5e" stroke-width=".05" fill="#5e5e5e"/><use xlink:href="#k" transform="matrix(1,0,0,1,-642.8907666483951,796.0615665363732) translate(0.004999999999999005 14.222222222222223)"/><path d="M-784.3 806.73h-194.95" stroke="#5e5e5e" stroke-width="2" fill="none"/><path d="M-783.3 807.7h-1.04v-1.94h1.03zM-979.22 807.7h-1.03v-1.94h1.03zM-646.84 981.66h-85.47v-1.95h85.46zm143.6 0h-85.48v-1.95h85.47z" stroke="#5e5e5e" stroke-width=".05" fill="#5e5e5e"/><path d="M-502.25 981.66h-1.03v-1.95h1.03z" fill="#5e5e5e"/><path stroke="#5e5e5e" stroke-width=".05" fill="#5e5e5e"/><path d="M-732.28 981.66h-1.03v-1.95h1.02z" fill="#5e5e5e"/><path stroke="#5e5e5e" stroke-width=".05" fill="#5e5e5e"/><use xlink:href="#l" transform="matrix(1,0,0,1,-646.8413601680899,970.0159198957599) translate(0.004999999999999005 14.222222222222223)"/><path d="M-959.25 980.68h174.94" stroke="#5e5e5e" stroke-width="2" fill="none"/><path d="M-959.22 981.66h-1.03v-1.95h1.03zM-783.3 981.66h-1.04v-1.95h1.03zM-616.8 1154.72l-.1 1.05-.24 1.07-.42 1-.57.94-.72.84-.83.7-.93.58-1.02.42-1.07.26-1.04.08H-732.3v-1.95h108.48l.83-.06.77-.18.73-.3.67-.42.6-.5.5-.6.43-.68.3-.73.18-.76.07-.83v-46.84h1.95zm113.55-120.15h-108.5l-.82.06-.76.18-.73.32-.67.4-.6.52-.5.6-.42.67-.3.74-.2.77-.05.83v46.84h-1.96v-46.92l.1-1.05.24-1.07.42-1 .58-.94.7-.84.84-.7.93-.6 1-.4 1.08-.26 1.05-.08h108.57z" stroke="#5e5e5e" stroke-width=".05" fill="#5e5e5e"/><path d="M-502.25 1034.57h-1.03v-1.95h1.03z" fill="#5e5e5e"/><path stroke="#5e5e5e" stroke-width=".05" fill="#5e5e5e"/><path d="M-732.28 1161.66h-1.03v-1.95h1.02z" fill="#5e5e5e"/><path stroke="#5e5e5e" stroke-width=".05" fill="#5e5e5e"/><use xlink:href="#m" transform="matrix(1,0,0,1,-642.4215998537047,1086.4702732551552) translate(0.004999999999999005 14.222222222222223)"/><path d="M-784.3 1160.68h-194.95" stroke="#5e5e5e" stroke-width="2" fill="none"/><path d="M-783.3 1161.66h-1.04v-1.95h1.03zM-979.22 1161.66h-1.03v-1.95h1.03z" stroke="#5e5e5e" stroke-width=".05" fill="#5e5e5e"/><path d="M-979.25 1347.55h194.94" stroke="#5e5e5e" stroke-width="2" fill="none"/><path d="M-979.22 1348.52h-1.03v-1.95h1.03zM-783.3 1348.52h-1.04v-1.95h1.03zM-530.62 1348.52h-201.7v-1.95h201.7zm55.92-11.64h-1.95v-194.2h1.95z" stroke="#5e5e5e" stroke-width=".05" fill="#5e5e5e"/><path d="M-474.7 1142.7h-1.95v-1.02h1.95z" fill="#5e5e5e"/><path stroke="#5e5e5e" stroke-width=".05" fill="#5e5e5e"/><path d="M-732.28 1348.52h-1.03v-1.95h1.02z" fill="#5e5e5e"/><path stroke="#5e5e5e" stroke-width=".05" fill="#5e5e5e"/><use xlink:href="#l" transform="matrix(1,0,0,1,-530.6229191231724,1336.8789799739463) translate(0.004999999999999005 14.222222222222223)"/><path d="M-230.6 1334.68a12.8 12.8 0 0 1 4.6-9.84l12.38-10.32a16.57 16.57 0 0 1 10.6-3.84H83.4a6 6 0 0 1 6 6v146.4a16.57 16.57 0 0 1-3.83 10.6l-10.32 12.4a12.8 12.8 0 0 1-9.84 4.6h-290a6 6 0 0 1-6-6z" stroke="#3a414a" stroke-width="2" fill="#fff"/><path d="M-224.6 1328.68a2.17 2.17 0 0 1-1.4-3.84l12.38-10.32a16.57 16.57 0 0 1 10.6-3.84H83.4a2.48 2.48 0 0 1 1.77 4.24l-9.52 9.52a14.48 14.48 0 0 1-10.24 4.24z" stroke="#3a414a" stroke-width="2" fill="#e6e6e6"/><path d="M71.4 1334.68a14.48 14.48 0 0 1 4.23-10.24l9.52-9.52a2.48 2.48 0 0 1 4.24 1.76v146.4a16.57 16.57 0 0 1-3.85 10.6l-10.32 12.4a2.17 2.17 0 0 1-3.84-1.4z" stroke="#3a414a" stroke-width="2" fill="#ccc"/><use xlink:href="#n" transform="matrix(1,0,0,1,-222.61224810896147,1336.6825865624269) translate(18.975308641975317 17.77777777777778)"/><use xlink:href="#o" transform="matrix(1,0,0,1,-222.61224810896147,1336.6825865624269) translate(132.30864197530866 17.77777777777778)"/><path d="M-145.6 1386.68a6 6 0 0 1 6-6h158a6 6 0 0 1 6 6v48a6 6 0 0 1-6 6h-158a6 6 0 0 1-6-6z" stroke="#3a414a" stroke-width="2" fill="#fff"/><path d="M-165.6 1391.68a6 6 0 0 1 6-6h28a6 6 0 0 1 6 6v8a6 6 0 0 1-6 6h-28a6 6 0 0 1-6-6zM-165.6 1421.68a6 6 0 0 1 6-6h28a6 6 0 0 1 6 6v8a6 6 0 0 1-6 6h-28a6 6 0 0 1-6-6z" stroke="#3a414a" stroke-width="2" fill="#fff"/><use xlink:href="#p" transform="matrix(1,0,0,1,-127.61224810896147,1386.6825865624269) translate(12.240740740740733 17.77777777777778)"/><use xlink:href="#q" transform="matrix(1,0,0,1,-127.61224810896147,1386.6825865624269) translate(46.160493827160494 44.44444444444444)"/><path d="M-69.64 1308.68h-1.95v-72.33h1.96zm0-93.66h-1.95v-72.34h1.96z" stroke="#5e5e5e" stroke-width=".05" fill="#5e5e5e"/><path d="M-69.64 1142.7h-1.95v-1.02h1.96z" fill="#5e5e5e"/><path stroke="#5e5e5e" stroke-width=".05" fill="#5e5e5e"/><path d="M-69.64 1309.68h-1.95v-1.02h1.96z" fill="#5e5e5e"/><path stroke="#5e5e5e" stroke-width=".05" fill="#5e5e5e"/><use xlink:href="#r" transform="matrix(1,0,0,1,-100.19249502224062,1215.015908136979) translate(0.004999999999999005 14.222222222222223)"/><g fill="none"><path d="M459.75 683.5v515.68"/><path d="M459.75 683.5v6.14m0 12.28v12.28m0 12.27v12.28m0 12.28v12.28m0 12.3v12.26m0 12.28v12.28m0 12.28v12.28m0 12.28v12.27m0 12.28v12.3m0 12.27v12.28m0 12.27v12.28m0 12.28v12.28m0 12.28v12.28m0 12.27v12.27m0 12.28v12.28m0 12.28V1058m0 12.28v12.28m0 12.28v12.28m0 12.27v12.28m0 12.28v12.28m0 12.3v12.27m0 12.27v6.14" stroke="#3a414a" stroke-width="3" stroke-linecap="round"/></g><path d="M-519.75 681.5h977" fill="none"/><path d="M-519.75 681.5h5.96m11.92 0h11.92m11.9 0h11.93m11.9 0h11.93m11.9 0h11.92m11.92 0h11.9m11.93 0h11.9m11.93 0h11.9m11.93 0h11.9m11.93 0h11.9m11.92 0h11.92m11.92 0h11.9m11.92 0h11.92m11.9 0H-204m11.9 0h11.92m11.9 0h11.93m11.9 0h11.93m11.9 0h11.93m11.92 0h11.9m11.93 0h11.9m11.93 0h11.9m11.93 0h11.92m11.92 0h11.9m11.93 0h11.9m11.92 0h11.9m11.92 0h11.92m11.9 0h11.93m11.9 0h11.93m11.9 0h11.93m11.9 0h11.93m11.9 0h11.93m11.9 0h11.9m11.93 0h11.9m11.93 0h11.9m11.93 0h11.9m11.92 0h11.9m11.93 0h11.9m11.93 0h11.9m11.93 0h11.92m11.9 0h11.93m11.9 0h11.93m11.9 0h5.97" stroke="#3a414a" stroke-width="3" stroke-linecap="round" fill="none"/><g fill="none"><path d="M-522.75 684.5v517"/><path d="M-522.75 684.5v5.88m0 11.75v11.75m0 11.75v11.75m0 11.75v11.75m0 11.75v11.75m0 11.75v11.75m0 11.75v11.75m0 11.75v11.75m0 11.75v11.75m0 11.75v11.75m0 11.75v11.75m0 11.75v11.75m0 11.75v11.75m0 11.75v11.75m0 11.75v11.75m0 11.75v11.74m0 11.76v11.74m0 11.76v11.74m0 11.76v11.74m0 11.76v11.74m0 11.76v11.74m0 11.76v11.74m0 11.76v5.87" stroke="#3a414a" stroke-width="3" stroke-linecap="round"/></g><path d="M-522.75 1204.5h980" fill="none"/><path d="M-522.75 1204.5h5.98m11.95 0h11.95m11.95 0h11.95m11.95 0h11.95m11.95 0h11.95m11.96 0h11.94m11.95 0h11.94m11.95 0h11.94m11.95 0h11.94m11.96 0h11.95m11.95 0h11.95m11.95 0h11.95m11.95 0h11.96m11.95 0h11.96m11.95 0h11.96m11.95 0h11.96m11.95 0h11.97m11.95 0h11.95m11.95 0h11.95m11.95 0h11.95m11.95 0h11.95m11.96 0h11.95m11.95 0H9.08m11.95 0h11.95m11.95 0h11.95m11.95 0H80.8m11.94 0h11.95m11.94 0h11.95m11.94 0h11.95m11.94 0h11.96m11.95 0h11.95m11.95 0h11.95m11.95 0h11.95m11.96 0H272m11.96 0h11.95m11.96 0h11.95m11.96 0h11.95m11.97 0h11.95m11.95 0h11.95m11.95 0h11.95m11.95 0h11.95m11.95 0h5.98" stroke="#3a414a" stroke-width="3" stroke-linecap="round" fill="none"/><path d="M-1176.25 803.77a6 6 0 0 1 6-6h143a6 6 0 0 1 6 6v50.9a6 6 0 0 1-6 6h-143a6 6 0 0 1-6-6z" stroke="#3a414a" stroke-width="2" fill="#fff"/><path d="M-1196.25 809.5a6 6 0 0 1 6-6h28a6 6 0 0 1 6 6v8a6 6 0 0 1-6 6h-28a6 6 0 0 1-6-6zM-1196.25 840.96a6 6 0 0 1 6-6h28a6 6 0 0 1 6 6v8a6 6 0 0 1-6 6h-28a6 6 0 0 1-6-6z" stroke="#3a414a" stroke-width="2" fill="#fff"/><use xlink:href="#s" transform="matrix(1,0,0,1,-1161.25,804.0647505155242) translate(28.845679012345684 29.944444444444443)"/><path d="M-1281.25 922.68a12.8 12.8 0 0 1 4.6-9.84l10-8.32a16.57 16.57 0 0 1 10.6-3.84h288.8a6 6 0 0 1 6 6v128.8a16.57 16.57 0 0 1-3.84 10.6l-8.3 10a12.8 12.8 0 0 1-9.85 4.6h-292a6 6 0 0 1-6-6z" stroke="#3a414a" stroke-width="2" fill="#fff"/><path d="M-1275.25 916.68a2.17 2.17 0 0 1-1.4-3.84l10-8.32a16.57 16.57 0 0 1 10.6-3.84h288.8a2.48 2.48 0 0 1 1.76 4.25l-7.5 7.5a14.48 14.48 0 0 1-10.25 4.25z" stroke="#3a414a" stroke-width="2" fill="#e6e6e6"/><path d="M-977.25 922.68a14.48 14.48 0 0 1 4.24-10.24l7.5-7.52a2.48 2.48 0 0 1 4.25 1.76v128.8a16.57 16.57 0 0 1-3.84 10.6l-8.3 10a2.17 2.17 0 0 1-3.85-1.4z" stroke="#3a414a" stroke-width="2" fill="#ccc"/><use xlink:href="#i" transform="matrix(1,0,0,1,-1273.25,924.6825865624266) translate(0 14.4)"/><use xlink:href="#t" transform="matrix(1,0,0,1,-1273.25,924.6825865624266) translate(71.85000000000001 14.4)"/><use xlink:href="#u" transform="matrix(1,0,0,1,-1273.25,924.6825865624266) translate(0 36)"/><use xlink:href="#v" transform="matrix(1,0,0,1,-1273.25,924.6825865624266) translate(59 36)"/><use xlink:href="#w" transform="matrix(1,0,0,1,-1273.25,924.6825865624266) translate(84 36)"/><path d="M-1195.66 978.93a6 6 0 0 1 6-6h156.82a6 6 0 0 1 6 6v63.66a6 6 0 0 1-6 6h-156.82a6 6 0 0 1-6-6z" stroke="#3a414a" stroke-width="2" fill="#fff"/><path d="M-1215.66 987.85a6 6 0 0 1 6-6h28a6 6 0 0 1 6 6v8a6 6 0 0 1-6 6h-28a6 6 0 0 1-6-6zM-1215.66 1025.68a6 6 0 0 1 6-6h28a6 6 0 0 1 6 6v8a6 6 0 0 1-6 6h-28a6 6 0 0 1-6-6z" stroke="#3a414a" stroke-width="2" fill="#fff"/><use xlink:href="#x" transform="matrix(1,0,0,1,-1177.894944407282,980.4984572343174) translate(2.3765432098765302 14.222222222222223)"/><use xlink:href="#y" transform="matrix(1,0,0,1,-1177.894944407282,980.4984572343174) translate(27.487654320987644 35.55555555555556)"/><use xlink:href="#z" transform="matrix(1,0,0,1,-1177.894944407282,980.4984572343174) translate(85.75925925925927 35.55555555555556)"/><use xlink:href="#A" transform="matrix(1,0,0,1,-1177.894944407282,980.4984572343174) translate(24.57407407407407 56.88888888888889)"/><path d="M-1261.25 1120.47a12.8 12.8 0 0 1 4.6-9.84l7.34-6.1a16.57 16.57 0 0 1 10.6-3.85h251.45a6 6 0 0 1 6 6v109.36a16.57 16.57 0 0 1-3.84 10.6l-6.1 7.34a12.8 12.8 0 0 1-9.84 4.6h-254.2a6 6 0 0 1-6-6z" stroke="#3a414a" stroke-width="2" fill="#fff"/><path d="M-1255.25 1114.47a2.17 2.17 0 0 1-1.4-3.84l7.34-6.1a16.57 16.57 0 0 1 10.6-3.85h251.45a2.48 2.48 0 0 1 1.76 4.24l-5.3 5.3a14.48 14.48 0 0 1-10.24 4.25z" stroke="#3a414a" stroke-width="2" fill="#e6e6e6"/><path d="M-995.04 1120.47a14.48 14.48 0 0 1 4.24-10.24l5.3-5.3a2.48 2.48 0 0 1 4.25 1.75v109.36a16.57 16.57 0 0 1-3.84 10.6l-6.1 7.34a2.17 2.17 0 0 1-3.84-1.4z" stroke="#3a414a" stroke-width="2" fill="#ccc"/><use xlink:href="#B" transform="matrix(1,0,0,1,-1253.25,1122.4734572343054) translate(0 16.6)"/><use xlink:href="#C" transform="matrix(1,0,0,1,-1253.25,1122.4734572343054) translate(71.85000000000001 16.6)"/><use xlink:href="#D" transform="matrix(1,0,0,1,-1253.25,1122.4734572343054) translate(135.85000000000002 16.6)"/><path d="M-1202.6 1159.6a6 6 0 0 1 6-6h170.7a6 6 0 0 1 6 6v60.54a6 6 0 0 1-6 6h-170.7a6 6 0 0 1-6-6z" stroke="#3a414a" stroke-width="2" fill="#fff"/><path d="M-1222.6 1167.73a6 6 0 0 1 6-6h28a6 6 0 0 1 6 6v8a6 6 0 0 1-6 6h-28a6 6 0 0 1-6-6zM-1222.6 1204a6 6 0 0 1 6-6h28a6 6 0 0 1 6 6v8a6 6 0 0 1-6 6h-28a6 6 0 0 1-6-6z" stroke="#3a414a" stroke-width="2" fill="#fff"/><use xlink:href="#E" transform="matrix(1,0,0,1,-1182.0569501131345,1160.8457343985724) translate(2.574074074074076 33.94444444444444)"/><use xlink:href="#F" transform="matrix(1,0,0,1,-1182.0569501131345,1160.8457343985724) translate(84.05555555555554 33.94444444444444)"/><path d="M-1261.25 1298.38a12.8 12.8 0 0 1 4.6-9.84l7.34-6.1a16.57 16.57 0 0 1 10.6-3.85h251.45a6 6 0 0 1 6 6v109.35a16.57 16.57 0 0 1-3.84 10.6l-6.1 7.34a12.8 12.8 0 0 1-9.84 4.6h-254.2a6 6 0 0 1-6-6z" stroke="#3a414a" stroke-width="2" fill="#fff"/><path d="M-1255.25 1292.38a2.17 2.17 0 0 1-1.4-3.84l7.34-6.1a16.57 16.57 0 0 1 10.6-3.85h251.45a2.48 2.48 0 0 1 1.76 4.23l-5.3 5.3a14.48 14.48 0 0 1-10.24 4.25z" stroke="#3a414a" stroke-width="2" fill="#e6e6e6"/><path d="M-995.04 1298.38a14.48 14.48 0 0 1 4.24-10.24l5.3-5.3a2.48 2.48 0 0 1 4.25 1.75v109.35a16.57 16.57 0 0 1-3.84 10.6l-6.1 7.34a2.17 2.17 0 0 1-3.84-1.4z" stroke="#3a414a" stroke-width="2" fill="#ccc"/><use xlink:href="#B" transform="matrix(1,0,0,1,-1253.25,1300.3821639530966) translate(0 16.6)"/><use xlink:href="#G" transform="matrix(1,0,0,1,-1253.25,1300.3821639530966) translate(71.85000000000001 16.6)"/><path d="M-1187.93 1347.3a6 6 0 0 1 6-6h141.36a6 6 0 0 1 6 6v53.78a6 6 0 0 1-6 6h-141.36a6 6 0 0 1-6-6z" stroke="#3a414a" stroke-width="2" fill="#fff"/><path d="M-1207.93 1353.75a6 6 0 0 1 6-6h28a6 6 0 0 1 6 6v8a6 6 0 0 1-6 6h-28a6 6 0 0 1-6-6zM-1207.93 1386.64a6 6 0 0 1 6-6h28a6 6 0 0 1 6 6v8a6 6 0 0 1-6 6h-28a6 6 0 0 1-6-6z" stroke="#3a414a" stroke-width="2" fill="#fff"/><use xlink:href="#H" transform="matrix(1,0,0,1,-1173.257418829146,1347.8808640825905) translate(33.376543209876544 30.944444444444443)"/><path d="M-1261.25 564.88a12.8 12.8 0 0 1 4.6-9.84l7.34-6.1a16.57 16.57 0 0 1 10.6-3.85h251.45a6 6 0 0 1 6 6v109.35a16.57 16.57 0 0 1-3.84 10.6l-6.1 7.34a12.8 12.8 0 0 1-9.84 4.6h-254.2a6 6 0 0 1-6-6z" stroke="#3a414a" stroke-width="2" fill="#fff"/><path d="M-1255.25 558.88a2.17 2.17 0 0 1-1.4-3.84l7.34-6.1a16.57 16.57 0 0 1 10.6-3.85h251.45a2.48 2.48 0 0 1 1.76 4.23l-5.3 5.3a14.48 14.48 0 0 1-10.24 4.25z" stroke="#3a414a" stroke-width="2" fill="#e6e6e6"/><path d="M-995.04 564.88a14.48 14.48 0 0 1 4.24-10.24l5.3-5.3a2.48 2.48 0 0 1 4.25 1.75v109.35a16.57 16.57 0 0 1-3.84 10.6l-6.1 7.34a2.17 2.17 0 0 1-3.84-1.4z" stroke="#3a414a" stroke-width="2" fill="#ccc"/><use xlink:href="#i" transform="matrix(1,0,0,1,-1253.25,566.8821639530881) translate(0 16.6)"/><use xlink:href="#I" transform="matrix(1,0,0,1,-1253.25,566.8821639530881) translate(71.85000000000001 16.6)"/><path d="M-1176.25 611.1a6 6 0 0 1 6-6h143a6 6 0 0 1 6 6V662a6 6 0 0 1-6 6h-143a6 6 0 0 1-6-6z" stroke="#3a414a" stroke-width="2" fill="#fff"/><path d="M-1196.25 616.82a6 6 0 0 1 6-6h28a6 6 0 0 1 6 6v8a6 6 0 0 1-6 6h-28a6 6 0 0 1-6-6zM-1196.25 648.27a6 6 0 0 1 6-6h28a6 6 0 0 1 6 6v8a6 6 0 0 1-6 6h-28a6 6 0 0 1-6-6z" stroke="#3a414a" stroke-width="2" fill="#fff"/><g><use xlink:href="#J" transform="matrix(1,0,0,1,-1161.25,611.3794992135785) translate(15.94444444444445 29.944444444444443)"/></g><path d="M-783.3 648h11M-738.3 648h5" stroke="#3a414a" stroke-width="2" fill="none"/><path d="M-758.3 634c7.72 0 14 6.26 14 14 0 7.73-6.28 14-14 14-7.74 0-14-6.27-14-14 0-7.74 6.26-14 14-14z" stroke="#3a414a" stroke-width="2" fill="#fff"/><path d="M-758.3 668c11.04 0 20-8.96 20-20 0-11.05-8.96-20-20-20" stroke="#3a414a" stroke-width="2" fill="none"/><path d="M-783.3 648a.8.8 0 0 1 .8-.8h9.4a.8.8 0 0 1 .8.8.8.8 0 0 1-.8.8h-9.4a.8.8 0 0 1-.8-.8z" fill="none"/><path d="M-616.8 763.03l.06.82.18.77.3.73.42.67.5.6.6.5.68.42.73.3.76.2.83.05h108.5v1.94h-108.58l-1.05-.08-1.07-.26-1-.42-.94-.57-.83-.7-.72-.83-.58-.93-.42-1.02-.25-1.06-.1-1.05v-43.9h1.97zm-5.9-115.92l1.08.26 1 .42.94.57.83.7.72.85.57.93.42 1 .25 1.08.1 1.06v43.9h-1.96v-43.82l-.06-.83-.18-.75-.3-.73-.42-.68-.5-.6-.6-.5-.68-.42-.73-.3-.76-.18-.82-.07h-108.5v-1.95h108.58z" stroke="#5e5e5e" stroke-width=".05" fill="#5e5e5e"/><path d="M-502.25 768.66v1.38h-1.03v-1.95h1.05z" fill="#5e5e5e"/><path stroke="#5e5e5e" stroke-width=".05" fill="#5e5e5e"/><path d="M-732.28 648.97h-1.03v-1.95h1.02z" fill="#5e5e5e"/><path stroke="#5e5e5e" stroke-width=".05" fill="#5e5e5e"/><g><use xlink:href="#l" transform="matrix(1,0,0,1,-646.8413890773685,697.8653343128536) translate(0.004999999999999005 14.222222222222223)"/></g><path d="M-784.3 648h-194.95" stroke="#5e5e5e" stroke-width="2" fill="none"/><path d="M-783.3 648.97h-1.04v-1.95h1.03zM-979.22 648.97h-1.03v-1.95h1.03z" stroke="#5e5e5e" stroke-width=".05" fill="#5e5e5e"/><path d="M-740 506a6 6 0 0 1 6-6h648a6 6 0 0 1 6 6v88a6 6 0 0 1-6 6h-648a6 6 0 0 1-6-6z" fill="none"/><g><use xlink:href="#K" transform="matrix(1,0,0,1,-740,500) translate(129.16049382716048 56.22222222222222)"/><use xlink:href="#L" transform="matrix(1,0,0,1,-740,500) translate(336.39506172839504 56.22222222222222)"/></g><defs><path d="M197 0v-115H63V0H30v-248h33v105h134v-105h34V0h-34" id="M"/><path d="M100-194c63 0 86 42 84 106H49c0 40 14 67 53 68 26 1 43-12 49-29l28 8c-11 28-37 45-77 45C44 4 14-33 15-96c1-61 26-98 85-98zm52 81c6-60-76-77-97-28-3 7-6 17-6 28h103" id="N"/><path d="M24 0v-261h32V0H24" id="O"/><path d="M141-36C126-15 110 5 73 4 37 3 15-17 15-53c-1-64 63-63 125-63 3-35-9-54-41-54-24 1-41 7-42 31l-33-3c5-37 33-52 76-52 45 0 72 20 72 64v82c-1 20 7 32 28 27v20c-31 9-61-2-59-35zM48-53c0 20 12 33 32 33 41-3 63-29 60-74-43 2-92-5-92 41" id="P"/><path d="M85-194c31 0 48 13 60 33l-1-100h32l1 261h-30c-2-10 0-23-3-31C134-8 116 4 85 4 32 4 16-35 15-94c0-66 23-100 70-100zm9 24c-40 0-46 34-46 75 0 40 6 74 45 74 42 0 51-32 51-76 0-42-9-74-50-73" id="Q"/><path d="M114-163C36-179 61-72 57 0H25l-1-190h30c1 12-1 29 2 39 6-27 23-49 58-41v29" id="R"/><path d="M205 0l-28-72H64L36 0H1l101-248h38L239 0h-34zm-38-99l-47-123c-12 45-31 82-46 123h93" id="S"/><path d="M233-177c-1 41-23 64-60 70L243 0h-38l-65-103H63V0H30v-248c88 3 205-21 203 71zM63-129c60-2 137 13 137-47 0-61-80-42-137-45v92" id="T"/><g id="a"><use transform="matrix(0.06172839506172839,0,0,0.06172839506172839,0,0)" xlink:href="#M"/><use transform="matrix(0.06172839506172839,0,0,0.06172839506172839,15.987654320987653,0)" xlink:href="#N"/><use transform="matrix(0.06172839506172839,0,0,0.06172839506172839,28.333333333333332,0)" xlink:href="#O"/><use transform="matrix(0.06172839506172839,0,0,0.06172839506172839,33.20987654320987,0)" xlink:href="#P"/><use transform="matrix(0.06172839506172839,0,0,0.06172839506172839,45.55555555555555,0)" xlink:href="#Q"/><use transform="matrix(0.06172839506172839,0,0,0.06172839506172839,57.90123456790123,0)" xlink:href="#N"/><use transform="matrix(0.06172839506172839,0,0,0.06172839506172839,70.24691358024691,0)" xlink:href="#R"/><use transform="matrix(0.06172839506172839,0,0,0.06172839506172839,77.5925925925926,0)" xlink:href="#S"/><use transform="matrix(0.06172839506172839,0,0,0.06172839506172839,92.4074074074074,0)" xlink:href="#T"/></g><path d="M135-143c-3-34-86-38-87 0 15 53 115 12 119 90S17 21 10-45l28-5c4 36 97 45 98 0-10-56-113-15-118-90-4-57 82-63 122-42 12 7 21 19 24 35" id="U"/><path d="M108 0H70L1-190h34L89-25l56-165h34" id="V"/><g id="b"><use transform="matrix(0.06172839506172839,0,0,0.06172839506172839,0,0)" xlink:href="#U"/><use transform="matrix(0.06172839506172839,0,0,0.06172839506172839,11.11111111111111,0)" xlink:href="#N"/><use transform="matrix(0.06172839506172839,0,0,0.06172839506172839,23.45679012345679,0)" xlink:href="#R"/><use transform="matrix(0.06172839506172839,0,0,0.06172839506172839,30.80246913580247,0)" xlink:href="#V"/><use transform="matrix(0.06172839506172839,0,0,0.06172839506172839,41.91358024691358,0)" xlink:href="#N"/><use transform="matrix(0.06172839506172839,0,0,0.06172839506172839,54.25925925925926,0)" xlink:href="#R"/></g><path d="M160-131c35 5 61 23 61 61C221 17 115-2 30 0v-248c76 3 177-17 177 60 0 33-19 50-47 57zm-97-11c50-1 110 9 110-42 0-47-63-36-110-37v79zm0 115c55-2 124 14 124-45 0-56-70-42-124-44v89" id="W"/><path d="M30-248c118-7 216 8 213 122C240-48 200 0 122 0H30v-248zM63-27c89 8 146-16 146-99s-60-101-146-95v194" id="X"/><g id="c"><use transform="matrix(0.06172839506172839,0,0,0.06172839506172839,0,0)" xlink:href="#W"/><use transform="matrix(0.06172839506172839,0,0,0.06172839506172839,14.814814814814813,0)" xlink:href="#X"/></g><path fill="#333" d="M136-208V0H84v-208H4v-40h212v40h-80" id="Y"/><path fill="#333" d="M67-125c0 53 21 87 73 88 37 1 54-22 65-47l45 17C233-25 199 4 140 4 58 4 20-42 15-125 8-235 124-281 211-232c18 10 29 29 36 50l-46 12c-8-25-30-41-62-41-52 0-71 34-72 86" id="Z"/><path fill="#333" d="M24-248c93 1 206-16 204 79-1 75-69 88-152 82V0H24v-248zm52 121c47 0 100 7 100-41 0-47-54-39-100-39v80" id="aa"/><path fill="#333" d="M4 7l51-268h42L46 7H4" id="ab"/><path fill="#333" d="M24 0v-248h52V0H24" id="ac"/><g id="d"><use transform="matrix(0.04938271604938272,0,0,0.04938271604938272,0,0)" xlink:href="#Y"/><use transform="matrix(0.04938271604938272,0,0,0.04938271604938272,10.814814814814815,0)" xlink:href="#Z"/><use transform="matrix(0.04938271604938272,0,0,0.04938271604938272,23.60493827160494,0)" xlink:href="#aa"/><use transform="matrix(0.04938271604938272,0,0,0.04938271604938272,35.45679012345679,0)" xlink:href="#ab"/><use transform="matrix(0.04938271604938272,0,0,0.04938271604938272,40.39506172839506,0)" xlink:href="#ac"/><use transform="matrix(0.04938271604938272,0,0,0.04938271604938272,45.333333333333336,0)" xlink:href="#aa"/></g><g id="e"><use transform="matrix(0.06172839506172839,0,0,0.06172839506172839,0,0)" xlink:href="#M"/><use transform="matrix(0.06172839506172839,0,0,0.06172839506172839,15.987654320987653,0)" xlink:href="#N"/><use transform="matrix(0.06172839506172839,0,0,0.06172839506172839,28.333333333333332,0)" xlink:href="#O"/><use transform="matrix(0.06172839506172839,0,0,0.06172839506172839,33.20987654320987,0)" xlink:href="#P"/><use transform="matrix(0.06172839506172839,0,0,0.06172839506172839,45.55555555555555,0)" xlink:href="#Q"/><use transform="matrix(0.06172839506172839,0,0,0.06172839506172839,57.90123456790123,0)" xlink:href="#N"/><use transform="matrix(0.06172839506172839,0,0,0.06172839506172839,70.24691358024691,0)" xlink:href="#R"/><use transform="matrix(0.06172839506172839,0,0,0.06172839506172839,77.5925925925926,0)" xlink:href="#S"/><use transform="matrix(0.06172839506172839,0,0,0.06172839506172839,92.4074074074074,0)" xlink:href="#T"/></g><path d="M115-194c53 0 69 39 70 98 0 66-23 100-70 100C84 3 66-7 56-30L54 0H23l1-261h32v101c10-23 28-34 59-34zm-8 174c40 0 45-34 45-75 0-40-5-75-45-74-42 0-51 32-51 76 0 43 10 73 51 73" id="ad"/><path d="M96-169c-40 0-48 33-48 73s9 75 48 75c24 0 41-14 43-38l32 2c-6 37-31 61-74 61-59 0-76-41-82-99-10-93 101-131 147-64 4 7 5 14 7 22l-32 3c-4-21-16-35-41-35" id="ae"/><path d="M143 0L79-87 56-68V0H24v-261h32v163l83-92h37l-77 82L181 0h-38" id="af"/><path d="M117-194c89-4 53 116 60 194h-32v-121c0-31-8-49-39-48C34-167 62-67 57 0H25l-1-190h30c1 10-1 24 2 32 11-22 29-35 61-36" id="ag"/><g id="f"><use transform="matrix(0.06172839506172839,0,0,0.06172839506172839,0,0)" xlink:href="#ad"/><use transform="matrix(0.06172839506172839,0,0,0.06172839506172839,12.345679012345679,0)" xlink:href="#P"/><use transform="matrix(0.06172839506172839,0,0,0.06172839506172839,24.691358024691358,0)" xlink:href="#ae"/><use transform="matrix(0.06172839506172839,0,0,0.06172839506172839,35.80246913580247,0)" xlink:href="#af"/><use transform="matrix(0.06172839506172839,0,0,0.06172839506172839,46.91358024691358,0)" xlink:href="#N"/><use transform="matrix(0.06172839506172839,0,0,0.06172839506172839,59.25925925925926,0)" xlink:href="#ag"/><use transform="matrix(0.06172839506172839,0,0,0.06172839506172839,71.60493827160494,0)" xlink:href="#Q"/></g><g id="g"><use transform="matrix(0.06172839506172839,0,0,0.06172839506172839,0,0)" xlink:href="#M"/><use transform="matrix(0.06172839506172839,0,0,0.06172839506172839,15.987654320987653,0)" xlink:href="#N"/><use transform="matrix(0.06172839506172839,0,0,0.06172839506172839,28.333333333333332,0)" xlink:href="#O"/><use transform="matrix(0.06172839506172839,0,0,0.06172839506172839,33.20987654320987,0)" xlink:href="#P"/><use transform="matrix(0.06172839506172839,0,0,0.06172839506172839,45.55555555555555,0)" xlink:href="#Q"/><use transform="matrix(0.06172839506172839,0,0,0.06172839506172839,57.90123456790123,0)" xlink:href="#N"/><use transform="matrix(0.06172839506172839,0,0,0.06172839506172839,70.24691358024691,0)" xlink:href="#R"/><use transform="matrix(0.06172839506172839,0,0,0.06172839506172839,77.5925925925926,0)" xlink:href="#S"/><use transform="matrix(0.06172839506172839,0,0,0.06172839506172839,92.4074074074074,0)" xlink:href="#T"/></g><path d="M101-234c-31-9-42 10-38 44h38v23H63V0H32v-167H5v-23h27c-7-52 17-82 69-68v24" id="ah"/><path d="M100-194c62-1 85 37 85 99 1 63-27 99-86 99S16-35 15-95c0-66 28-99 85-99zM99-20c44 1 53-31 53-75 0-43-8-75-51-75s-53 32-53 75 10 74 51 75" id="ai"/><path d="M59-47c-2 24 18 29 38 22v24C64 9 27 4 27-40v-127H5v-23h24l9-43h21v43h35v23H59v120" id="aj"/><g id="h"><use transform="matrix(0.06172839506172839,0,0,0.06172839506172839,0,0)" xlink:href="#ah"/><use transform="matrix(0.06172839506172839,0,0,0.06172839506172839,6.172839506172839,0)" xlink:href="#R"/><use transform="matrix(0.06172839506172839,0,0,0.06172839506172839,13.518518518518519,0)" xlink:href="#ai"/><use transform="matrix(0.06172839506172839,0,0,0.06172839506172839,25.864197530864196,0)" xlink:href="#ag"/><use transform="matrix(0.06172839506172839,0,0,0.06172839506172839,38.20987654320987,0)" xlink:href="#aj"/><use transform="matrix(0.06172839506172839,0,0,0.06172839506172839,44.382716049382715,0)" xlink:href="#N"/><use transform="matrix(0.06172839506172839,0,0,0.06172839506172839,56.72839506172839,0)" xlink:href="#ag"/><use transform="matrix(0.06172839506172839,0,0,0.06172839506172839,69.07407407407408,0)" xlink:href="#Q"/></g><path d="M185-189c-5-48-123-54-124 2 14 75 158 14 163 119 3 78-121 87-175 55-17-10-28-26-33-46l33-7c5 56 141 63 141-1 0-78-155-14-162-118-5-82 145-84 179-34 5 7 8 16 11 25" id="ak"/><path d="M24-231v-30h32v30H24zM24 0v-190h32V0H24" id="al"/><g id="i"><use transform="matrix(0.05,0,0,0.05,0,0)" xlink:href="#ak"/><use transform="matrix(0.05,0,0,0.05,12,0)" xlink:href="#N"/><use transform="matrix(0.05,0,0,0.05,22,0)" xlink:href="#R"/><use transform="matrix(0.05,0,0,0.05,27.950000000000003,0)" xlink:href="#V"/><use transform="matrix(0.05,0,0,0.05,36.95,0)" xlink:href="#al"/><use transform="matrix(0.05,0,0,0.05,40.900000000000006,0)" xlink:href="#Q"/><use transform="matrix(0.05,0,0,0.05,50.900000000000006,0)" xlink:href="#ai"/><use transform="matrix(0.05,0,0,0.05,60.900000000000006,0)" xlink:href="#R"/></g><g id="j"><use transform="matrix(0.05,0,0,0.05,0,0)" xlink:href="#ad"/><use transform="matrix(0.05,0,0,0.05,10,0)" xlink:href="#R"/><use transform="matrix(0.05,0,0,0.05,15.949999999999998,0)" xlink:href="#ai"/><use transform="matrix(0.05,0,0,0.05,25.950000000000003,0)" xlink:href="#af"/><use transform="matrix(0.05,0,0,0.05,34.95,0)" xlink:href="#N"/><use transform="matrix(0.05,0,0,0.05,44.95,0)" xlink:href="#R"/></g><path fill="#333" d="M230 0l2-204L168 0h-37L68-204 70 0H24v-248h70l56 185 57-185h69V0h-46" id="am"/><path fill="#333" d="M140-251c80 0 125 45 125 126 0 70-33 111-92 124 6 28 34 38 68 31l-1 36C177 83 129 55 120 2 51-6 15-50 15-125c0-81 44-126 125-126zm-1 214c52 0 73-35 73-88 0-50-21-86-72-86-52 0-73 35-73 86s22 88 72 88" id="an"/><g id="k"><use transform="matrix(0.04938271604938272,0,0,0.04938271604938272,0,0)" xlink:href="#am"/><use transform="matrix(0.04938271604938272,0,0,0.04938271604938272,14.765432098765434,0)" xlink:href="#an"/><use transform="matrix(0.04938271604938272,0,0,0.04938271604938272,28.592592592592595,0)" xlink:href="#Y"/><use transform="matrix(0.04938271604938272,0,0,0.04938271604938272,39.40740740740741,0)" xlink:href="#Y"/></g><path fill="#333" d="M186 0v-106H76V0H24v-248h52v99h110v-99h50V0h-50" id="ao"/><path fill="#333" d="M169-182c-1-43-94-46-97-3 18 66 151 10 154 114 3 95-165 93-204 36-6-8-10-19-12-30l50-8c3 46 112 56 116 5-17-69-150-10-154-114-4-87 153-88 188-35 5 8 8 18 10 28" id="ap"/><g id="l"><use transform="matrix(0.04938271604938272,0,0,0.04938271604938272,0,0)" xlink:href="#ao"/><use transform="matrix(0.04938271604938272,0,0,0.04938271604938272,12.790123456790125,0)" xlink:href="#Y"/><use transform="matrix(0.04938271604938272,0,0,0.04938271604938272,23.60493827160494,0)" xlink:href="#Y"/><use transform="matrix(0.04938271604938272,0,0,0.04938271604938272,34.41975308641975,0)" xlink:href="#aa"/><use transform="matrix(0.04938271604938272,0,0,0.04938271604938272,46.27160493827161,0)" xlink:href="#ap"/></g><g id="m"><use transform="matrix(0.04938271604938272,0,0,0.04938271604938272,0,0)" xlink:href="#ap"/><use transform="matrix(0.04938271604938272,0,0,0.04938271604938272,11.851851851851853,0)" xlink:href="#am"/><use transform="matrix(0.04938271604938272,0,0,0.04938271604938272,26.617283950617285,0)" xlink:href="#Y"/><use transform="matrix(0.04938271604938272,0,0,0.04938271604938272,37.4320987654321,0)" xlink:href="#aa"/></g><path d="M115-194c55 1 70 41 70 98S169 2 115 4C84 4 66-9 55-30l1 105H24l-1-265h31l2 30c10-21 28-34 59-34zm-8 174c40 0 45-34 45-75s-6-73-45-74c-42 0-51 32-51 76 0 43 10 73 51 73" id="aq"/><g id="n"><use transform="matrix(0.06172839506172839,0,0,0.06172839506172839,0,0)" xlink:href="#X"/><use transform="matrix(0.06172839506172839,0,0,0.06172839506172839,15.987654320987653,0)" xlink:href="#al"/><use transform="matrix(0.06172839506172839,0,0,0.06172839506172839,20.864197530864196,0)" xlink:href="#U"/><use transform="matrix(0.06172839506172839,0,0,0.06172839506172839,31.975308641975307,0)" xlink:href="#aq"/><use transform="matrix(0.06172839506172839,0,0,0.06172839506172839,44.32098765432099,0)" xlink:href="#ai"/><use transform="matrix(0.06172839506172839,0,0,0.06172839506172839,56.666666666666664,0)" xlink:href="#U"/><use transform="matrix(0.06172839506172839,0,0,0.06172839506172839,67.77777777777777,0)" xlink:href="#al"/><use transform="matrix(0.06172839506172839,0,0,0.06172839506172839,72.65432098765432,0)" xlink:href="#aj"/><use transform="matrix(0.06172839506172839,0,0,0.06172839506172839,78.82716049382715,0)" xlink:href="#al"/><use transform="matrix(0.06172839506172839,0,0,0.06172839506172839,83.7037037037037,0)" xlink:href="#V"/><use transform="matrix(0.06172839506172839,0,0,0.06172839506172839,94.81481481481481,0)" xlink:href="#ai"/></g><path d="M84 4C-5 8 30-112 23-190h32v120c0 31 7 50 39 49 72-2 45-101 50-169h31l1 190h-30c-1-10 1-25-2-33-11 22-28 36-60 37" id="ar"/><g id="o"><use transform="matrix(0.06172839506172839,0,0,0.06172839506172839,0,0)" xlink:href="#ar"/><use transform="matrix(0.06172839506172839,0,0,0.06172839506172839,12.345679012345679,0)" xlink:href="#U"/><use transform="matrix(0.06172839506172839,0,0,0.06172839506172839,23.45679012345679,0)" xlink:href="#ar"/><use transform="matrix(0.06172839506172839,0,0,0.06172839506172839,35.80246913580247,0)" xlink:href="#P"/><use transform="matrix(0.06172839506172839,0,0,0.06172839506172839,48.148148148148145,0)" xlink:href="#R"/><use transform="matrix(0.06172839506172839,0,0,0.06172839506172839,55.49382716049382,0)" xlink:href="#al"/><use transform="matrix(0.06172839506172839,0,0,0.06172839506172839,60.37037037037037,0)" xlink:href="#ai"/></g><path d="M190 0L58-211 59 0H30v-248h39L202-35l-2-213h31V0h-41" id="as"/><path d="M177-190C167-65 218 103 67 71c-23-6-38-20-44-43l32-5c15 47 100 32 89-28v-30C133-14 115 1 83 1 29 1 15-40 15-95c0-56 16-97 71-98 29-1 48 16 59 35 1-10 0-23 2-32h30zM94-22c36 0 50-32 50-73 0-42-14-75-50-75-39 0-46 34-46 75s6 73 46 73" id="at"/><g id="p"><use transform="matrix(0.06172839506172839,0,0,0.06172839506172839,0,0)" xlink:href="#as"/><use transform="matrix(0.06172839506172839,0,0,0.06172839506172839,15.987654320987653,0)" xlink:href="#P"/><use transform="matrix(0.06172839506172839,0,0,0.06172839506172839,28.333333333333332,0)" xlink:href="#V"/><use transform="matrix(0.06172839506172839,0,0,0.06172839506172839,39.44444444444444,0)" xlink:href="#N"/><use transform="matrix(0.06172839506172839,0,0,0.06172839506172839,51.79012345679012,0)" xlink:href="#at"/><use transform="matrix(0.06172839506172839,0,0,0.06172839506172839,64.1358024691358,0)" xlink:href="#P"/><use transform="matrix(0.06172839506172839,0,0,0.06172839506172839,76.48148148148148,0)" xlink:href="#Q"/><use transform="matrix(0.06172839506172839,0,0,0.06172839506172839,88.82716049382717,0)" xlink:href="#ai"/><use transform="matrix(0.06172839506172839,0,0,0.06172839506172839,101.17283950617285,0)" xlink:href="#R"/></g><path d="M206 0h-36l-40-164L89 0H53L-1-190h32L70-26l43-164h34l41 164 42-164h31" id="au"/><g id="q"><use transform="matrix(0.06172839506172839,0,0,0.06172839506172839,0,0)" xlink:href="#au"/><use transform="matrix(0.06172839506172839,0,0,0.06172839506172839,15.987654320987653,0)" xlink:href="#N"/><use transform="matrix(0.06172839506172839,0,0,0.06172839506172839,28.333333333333332,0)" xlink:href="#ad"/></g><g id="r"><use transform="matrix(0.04938271604938272,0,0,0.04938271604938272,0,0)" xlink:href="#ao"/><use transform="matrix(0.04938271604938272,0,0,0.04938271604938272,12.790123456790125,0)" xlink:href="#Y"/><use transform="matrix(0.04938271604938272,0,0,0.04938271604938272,23.60493827160494,0)" xlink:href="#aa"/><use transform="matrix(0.04938271604938272,0,0,0.04938271604938272,35.45679012345679,0)" xlink:href="#aa"/><use transform="matrix(0.04938271604938272,0,0,0.04938271604938272,47.308641975308646,0)" xlink:href="#ap"/></g><g id="s"><use transform="matrix(0.06172839506172839,0,0,0.06172839506172839,0,0)" xlink:href="#W"/><use transform="matrix(0.06172839506172839,0,0,0.06172839506172839,14.814814814814813,0)" xlink:href="#R"/><use transform="matrix(0.06172839506172839,0,0,0.06172839506172839,22.160493827160494,0)" xlink:href="#ai"/><use transform="matrix(0.06172839506172839,0,0,0.06172839506172839,34.50617283950617,0)" xlink:href="#af"/><use transform="matrix(0.06172839506172839,0,0,0.06172839506172839,45.61728395061728,0)" xlink:href="#N"/><use transform="matrix(0.06172839506172839,0,0,0.06172839506172839,57.962962962962955,0)" xlink:href="#R"/></g><path d="M210-169c-67 3-38 105-44 169h-31v-121c0-29-5-50-35-48C34-165 62-65 56 0H25l-1-190h30c1 10-1 24 2 32 10-44 99-50 107 0 11-21 27-35 58-36 85-2 47 119 55 194h-31v-121c0-29-5-49-35-48" id="av"/><g id="t"><use transform="matrix(0.05,0,0,0.05,0,0)" xlink:href="#R"/><use transform="matrix(0.05,0,0,0.05,5.95,0)" xlink:href="#N"/><use transform="matrix(0.05,0,0,0.05,15.949999999999998,0)" xlink:href="#ae"/><use transform="matrix(0.05,0,0,0.05,24.95,0)" xlink:href="#ai"/><use transform="matrix(0.05,0,0,0.05,34.95,0)" xlink:href="#av"/><use transform="matrix(0.05,0,0,0.05,49.900000000000006,0)" xlink:href="#N"/><use transform="matrix(0.05,0,0,0.05,59.900000000000006,0)" xlink:href="#ag"/><use transform="matrix(0.05,0,0,0.05,69.9,0)" xlink:href="#Q"/><use transform="matrix(0.05,0,0,0.05,79.9,0)" xlink:href="#P"/><use transform="matrix(0.05,0,0,0.05,89.9,0)" xlink:href="#ae"/><use transform="matrix(0.05,0,0,0.05,98.9,0)" xlink:href="#al"/><use transform="matrix(0.05,0,0,0.05,102.85000000000001,0)" xlink:href="#ai"/><use transform="matrix(0.05,0,0,0.05,112.85000000000001,0)" xlink:href="#ag"/></g><g id="u"><use transform="matrix(0.05,0,0,0.05,0,0)" xlink:href="#aq"/><use transform="matrix(0.05,0,0,0.05,10,0)" xlink:href="#ar"/><use transform="matrix(0.05,0,0,0.05,20,0)" xlink:href="#ag"/><use transform="matrix(0.05,0,0,0.05,30,0)" xlink:href="#aj"/><use transform="matrix(0.05,0,0,0.05,35,0)" xlink:href="#ai"/><use transform="matrix(0.05,0,0,0.05,45,0)" xlink:href="#U"/></g><g id="v"><use transform="matrix(0.05,0,0,0.05,0,0)" xlink:href="#Q"/><use transform="matrix(0.05,0,0,0.05,10,0)" xlink:href="#N"/></g><g id="w"><use transform="matrix(0.05,0,0,0.05,0,0)" xlink:href="#ae"/><use transform="matrix(0.05,0,0,0.05,9,0)" xlink:href="#ai"/><use transform="matrix(0.05,0,0,0.05,19,0)" xlink:href="#O"/><use transform="matrix(0.05,0,0,0.05,22.95,0)" xlink:href="#ai"/><use transform="matrix(0.05,0,0,0.05,32.95,0)" xlink:href="#ae"/><use transform="matrix(0.05,0,0,0.05,41.95,0)" xlink:href="#P"/><use transform="matrix(0.05,0,0,0.05,51.95,0)" xlink:href="#ae"/><use transform="matrix(0.05,0,0,0.05,60.95,0)" xlink:href="#al"/><use transform="matrix(0.05,0,0,0.05,64.9,0)" xlink:href="#ai"/><use transform="matrix(0.05,0,0,0.05,74.9,0)" xlink:href="#ag"/></g><g id="x"><use transform="matrix(0.04938271604938272,0,0,0.04938271604938272,0,0)" xlink:href="#T"/><use transform="matrix(0.04938271604938272,0,0,0.04938271604938272,12.790123456790125,0)" xlink:href="#N"/><use transform="matrix(0.04938271604938272,0,0,0.04938271604938272,22.66666666666667,0)" xlink:href="#ae"/><use transform="matrix(0.04938271604938272,0,0,0.04938271604938272,31.555555555555557,0)" xlink:href="#ai"/><use transform="matrix(0.04938271604938272,0,0,0.04938271604938272,41.4320987654321,0)" xlink:href="#av"/><use transform="matrix(0.04938271604938272,0,0,0.04938271604938272,56.19753086419754,0)" xlink:href="#N"/><use transform="matrix(0.04938271604938272,0,0,0.04938271604938272,66.07407407407408,0)" xlink:href="#ag"/><use transform="matrix(0.04938271604938272,0,0,0.04938271604938272,75.95061728395062,0)" xlink:href="#Q"/><use transform="matrix(0.04938271604938272,0,0,0.04938271604938272,85.82716049382717,0)" xlink:href="#P"/><use transform="matrix(0.04938271604938272,0,0,0.04938271604938272,95.70370370370371,0)" xlink:href="#ae"/><use transform="matrix(0.04938271604938272,0,0,0.04938271604938272,104.5925925925926,0)" xlink:href="#al"/><use transform="matrix(0.04938271604938272,0,0,0.04938271604938272,108.49382716049384,0)" xlink:href="#ai"/><use transform="matrix(0.04938271604938272,0,0,0.04938271604938272,118.37037037037038,0)" xlink:href="#ag"/></g><g id="y"><use transform="matrix(0.04938271604938272,0,0,0.04938271604938272,0,0)" xlink:href="#aq"/><use transform="matrix(0.04938271604938272,0,0,0.04938271604938272,9.876543209876544,0)" xlink:href="#ar"/><use transform="matrix(0.04938271604938272,0,0,0.04938271604938272,19.75308641975309,0)" xlink:href="#ag"/><use transform="matrix(0.04938271604938272,0,0,0.04938271604938272,29.629629629629633,0)" xlink:href="#aj"/><use transform="matrix(0.04938271604938272,0,0,0.04938271604938272,34.567901234567906,0)" xlink:href="#ai"/><use transform="matrix(0.04938271604938272,0,0,0.04938271604938272,44.44444444444445,0)" xlink:href="#U"/></g><g id="z"><use transform="matrix(0.04938271604938272,0,0,0.04938271604938272,0,0)" xlink:href="#Q"/><use transform="matrix(0.04938271604938272,0,0,0.04938271604938272,9.876543209876544,0)" xlink:href="#N"/></g><g id="A"><use transform="matrix(0.04938271604938272,0,0,0.04938271604938272,0,0)" xlink:href="#ae"/><use transform="matrix(0.04938271604938272,0,0,0.04938271604938272,8.88888888888889,0)" xlink:href="#ai"/><use transform="matrix(0.04938271604938272,0,0,0.04938271604938272,18.765432098765434,0)" xlink:href="#O"/><use transform="matrix(0.04938271604938272,0,0,0.04938271604938272,22.666666666666668,0)" xlink:href="#ai"/><use transform="matrix(0.04938271604938272,0,0,0.04938271604938272,32.543209876543216,0)" xlink:href="#ae"/><use transform="matrix(0.04938271604938272,0,0,0.04938271604938272,41.4320987654321,0)" xlink:href="#P"/><use transform="matrix(0.04938271604938272,0,0,0.04938271604938272,51.308641975308646,0)" xlink:href="#ae"/><use transform="matrix(0.04938271604938272,0,0,0.04938271604938272,60.19753086419754,0)" xlink:href="#al"/><use transform="matrix(0.04938271604938272,0,0,0.04938271604938272,64.09876543209877,0)" xlink:href="#ai"/><use transform="matrix(0.04938271604938272,0,0,0.04938271604938272,73.97530864197532,0)" xlink:href="#ag"/></g><g id="B"><use transform="matrix(0.05,0,0,0.05,0,0)" xlink:href="#ak"/><use transform="matrix(0.05,0,0,0.05,12,0)" xlink:href="#N"/><use transform="matrix(0.05,0,0,0.05,22,0)" xlink:href="#R"/><use transform="matrix(0.05,0,0,0.05,27.950000000000003,0)" xlink:href="#V"/><use transform="matrix(0.05,0,0,0.05,36.95,0)" xlink:href="#al"/><use transform="matrix(0.05,0,0,0.05,40.900000000000006,0)" xlink:href="#Q"/><use transform="matrix(0.05,0,0,0.05,50.900000000000006,0)" xlink:href="#ai"/><use transform="matrix(0.05,0,0,0.05,60.900000000000006,0)" xlink:href="#R"/></g><path d="M106-169C34-169 62-67 57 0H25v-261h32l-1 103c12-21 28-36 61-36 89 0 53 116 60 194h-32v-121c2-32-8-49-39-48" id="aw"/><g id="C"><use transform="matrix(0.05,0,0,0.05,0,0)" xlink:href="#P"/><use transform="matrix(0.05,0,0,0.05,10,0)" xlink:href="#aq"/><use transform="matrix(0.05,0,0,0.05,20,0)" xlink:href="#P"/><use transform="matrix(0.05,0,0,0.05,30,0)" xlink:href="#ae"/><use transform="matrix(0.05,0,0,0.05,39,0)" xlink:href="#aw"/><use transform="matrix(0.05,0,0,0.05,49,0)" xlink:href="#N"/></g><g id="D"><use transform="matrix(0.05,0,0,0.05,0,0)" xlink:href="#N"/><use transform="matrix(0.05,0,0,0.05,10,0)" xlink:href="#av"/><use transform="matrix(0.05,0,0,0.05,24.950000000000003,0)" xlink:href="#P"/><use transform="matrix(0.05,0,0,0.05,34.95,0)" xlink:href="#al"/><use transform="matrix(0.05,0,0,0.05,38.900000000000006,0)" xlink:href="#O"/></g><g id="E"><use transform="matrix(0.06172839506172839,0,0,0.06172839506172839,0,0)" xlink:href="#S"/><use transform="matrix(0.06172839506172839,0,0,0.06172839506172839,14.814814814814813,0)" xlink:href="#aq"/><use transform="matrix(0.06172839506172839,0,0,0.06172839506172839,27.160493827160494,0)" xlink:href="#P"/><use transform="matrix(0.06172839506172839,0,0,0.06172839506172839,39.50617283950617,0)" xlink:href="#ae"/><use transform="matrix(0.06172839506172839,0,0,0.06172839506172839,50.61728395061728,0)" xlink:href="#aw"/><use transform="matrix(0.06172839506172839,0,0,0.06172839506172839,62.962962962962955,0)" xlink:href="#N"/></g><path d="M30 0v-248h187v28H63v79h144v27H63v87h162V0H30" id="ax"/><g id="F"><use transform="matrix(0.06172839506172839,0,0,0.06172839506172839,0,0)" xlink:href="#ax"/><use transform="matrix(0.06172839506172839,0,0,0.06172839506172839,14.814814814814813,0)" xlink:href="#av"/><use transform="matrix(0.06172839506172839,0,0,0.06172839506172839,33.2716049382716,0)" xlink:href="#P"/><use transform="matrix(0.06172839506172839,0,0,0.06172839506172839,45.61728395061728,0)" xlink:href="#al"/><use transform="matrix(0.06172839506172839,0,0,0.06172839506172839,50.49382716049382,0)" xlink:href="#O"/></g><g id="G"><use transform="matrix(0.05,0,0,0.05,0,0)" xlink:href="#aj"/><use transform="matrix(0.05,0,0,0.05,5,0)" xlink:href="#au"/><use transform="matrix(0.05,0,0,0.05,17.950000000000003,0)" xlink:href="#al"/><use transform="matrix(0.05,0,0,0.05,21.900000000000002,0)" xlink:href="#O"/><use transform="matrix(0.05,0,0,0.05,25.85,0)" xlink:href="#al"/><use transform="matrix(0.05,0,0,0.05,29.8,0)" xlink:href="#ai"/></g><path d="M127-220V0H93v-220H8v-28h204v28h-85" id="ay"/><g id="H"><use transform="matrix(0.06172839506172839,0,0,0.06172839506172839,0,0)" xlink:href="#ay"/><use transform="matrix(0.06172839506172839,0,0,0.06172839506172839,12.28395061728395,0)" xlink:href="#au"/><use transform="matrix(0.06172839506172839,0,0,0.06172839506172839,28.2716049382716,0)" xlink:href="#al"/><use transform="matrix(0.06172839506172839,0,0,0.06172839506172839,33.148148148148145,0)" xlink:href="#O"/><use transform="matrix(0.06172839506172839,0,0,0.06172839506172839,38.02469135802469,0)" xlink:href="#al"/><use transform="matrix(0.06172839506172839,0,0,0.06172839506172839,42.901234567901234,0)" xlink:href="#ai"/></g><g id="I"><use transform="matrix(0.05,0,0,0.05,0,0)" xlink:href="#aj"/><use transform="matrix(0.05,0,0,0.05,5,0)" xlink:href="#N"/><use transform="matrix(0.05,0,0,0.05,15,0)" xlink:href="#O"/><use transform="matrix(0.05,0,0,0.05,18.95,0)" xlink:href="#N"/><use transform="matrix(0.05,0,0,0.05,28.950000000000003,0)" xlink:href="#at"/><use transform="matrix(0.05,0,0,0.05,38.95,0)" xlink:href="#R"/><use transform="matrix(0.05,0,0,0.05,44.900000000000006,0)" xlink:href="#P"/><use transform="matrix(0.05,0,0,0.05,54.900000000000006,0)" xlink:href="#av"/></g><g id="J"><use transform="matrix(0.06172839506172839,0,0,0.06172839506172839,0,0)" xlink:href="#ay"/><use transform="matrix(0.06172839506172839,0,0,0.06172839506172839,11.049382716049381,0)" xlink:href="#N"/><use transform="matrix(0.06172839506172839,0,0,0.06172839506172839,23.39506172839506,0)" xlink:href="#O"/><use transform="matrix(0.06172839506172839,0,0,0.06172839506172839,28.2716049382716,0)" xlink:href="#N"/><use transform="matrix(0.06172839506172839,0,0,0.06172839506172839,40.61728395061728,0)" xlink:href="#at"/><use transform="matrix(0.06172839506172839,0,0,0.06172839506172839,52.962962962962955,0)" xlink:href="#R"/><use transform="matrix(0.06172839506172839,0,0,0.06172839506172839,60.30864197530863,0)" xlink:href="#P"/><use transform="matrix(0.06172839506172839,0,0,0.06172839506172839,72.65432098765432,0)" xlink:href="#av"/></g><path d="M30-248c87 1 191-15 191 75 0 78-77 80-158 76V0H30v-248zm33 125c57 0 124 11 124-50 0-59-68-47-124-48v98" id="az"/><path d="M30 0v-248h33v221h125V0H30" id="aA"/><path d="M33 0v-248h34V0H33" id="aB"/><path d="M143 4C61 4 22-44 18-125c-5-107 100-154 193-111 17 8 29 25 37 43l-32 9c-13-25-37-40-76-40-61 0-88 39-88 99 0 61 29 100 91 101 35 0 62-11 79-27v-45h-74v-28h105v86C228-13 192 4 143 4" id="aC"/><path d="M232-93c-1 65-40 97-104 97C67 4 28-28 28-90v-158h33c8 89-33 224 67 224 102 0 64-133 71-224h33v155" id="aD"/><g id="K"><use transform="matrix(0.08641975308641976,0,0,0.08641975308641976,0,0)" xlink:href="#X"/><use transform="matrix(0.08641975308641976,0,0,0.08641975308641976,22.38271604938272,0)" xlink:href="#ax"/><use transform="matrix(0.08641975308641976,0,0,0.08641975308641976,43.12345679012346,0)" xlink:href="#ak"/><use transform="matrix(0.08641975308641976,0,0,0.08641975308641976,63.8641975308642,0)" xlink:href="#az"/><use transform="matrix(0.08641975308641976,0,0,0.08641975308641976,84.60493827160495,0)" xlink:href="#aA"/><use transform="matrix(0.08641975308641976,0,0,0.08641975308641976,101.8888888888889,0)" xlink:href="#aB"/><use transform="matrix(0.08641975308641976,0,0,0.08641975308641976,110.53086419753087,0)" xlink:href="#ax"/><use transform="matrix(0.08641975308641976,0,0,0.08641975308641976,131.27160493827162,0)" xlink:href="#aC"/><use transform="matrix(0.08641975308641976,0,0,0.08641975308641976,155.46913580246917,0)" xlink:href="#aD"/><use transform="matrix(0.08641975308641976,0,0,0.08641975308641976,177.85185185185188,0)" xlink:href="#ax"/></g><path d="M140-251c81 0 123 46 123 126C263-46 219 4 140 4 59 4 17-45 17-125s42-126 123-126zm0 227c63 0 89-41 89-101s-29-99-89-99c-61 0-89 39-89 99S79-25 140-24" id="aE"/><g id="L"><use transform="matrix(0.08641975308641976,0,0,0.08641975308641976,0,0)" xlink:href="#az"/><use transform="matrix(0.08641975308641976,0,0,0.08641975308641976,20.740740740740744,0)" xlink:href="#T"/><use transform="matrix(0.08641975308641976,0,0,0.08641975308641976,43.12345679012346,0)" xlink:href="#aE"/><use transform="matrix(0.08641975308641976,0,0,0.08641975308641976,67.32098765432099,0)" xlink:href="#az"/><use transform="matrix(0.08641975308641976,0,0,0.08641975308641976,88.06172839506173,0)" xlink:href="#aD"/><use transform="matrix(0.08641975308641976,0,0,0.08641975308641976,110.44444444444446,0)" xlink:href="#ax"/><use transform="matrix(0.08641975308641976,0,0,0.08641975308641976,131.1851851851852,0)" xlink:href="#ak"/><use transform="matrix(0.08641975308641976,0,0,0.08641975308641976,151.92592592592592,0)" xlink:href="#ay"/><use transform="matrix(0.08641975308641976,0,0,0.08641975308641976,170.2469135802469,0)" xlink:href="#aE"/></g></defs></g></svg>